<svg width="67" height="66" viewBox="0 0 67 66" fill="none" xmlns="http://www.w3.org/2000/svg">
<path d="M7.71875 33C7.71875 20.8466 7.71875 14.7699 11.4943 10.9943C15.2699 7.21875 21.3466 7.21875 33.5 7.21875C45.6533 7.21875 51.7302 7.21875 55.5056 10.9943C59.2812 14.7699 59.2812 20.8466 59.2812 33" stroke="#A6EDC8" stroke-width="4.125"/>
<path d="M7.71875 38.1562C7.71875 30.9367 7.71875 27.3271 9.12375 24.5697C10.3596 22.1441 12.3316 20.1721 14.7572 18.9363C17.5146 17.5312 21.1243 17.5312 28.3438 17.5312H38.6562C45.8758 17.5312 49.4854 17.5312 52.243 18.9363C54.6685 20.1721 56.6405 22.1441 57.8762 24.5697C59.2813 27.3271 59.2812 30.9367 59.2812 38.1562C59.2812 45.3758 59.2813 48.9854 57.8762 51.743C56.6405 54.1685 54.6685 56.1405 52.243 57.3762C49.4854 58.7813 45.8758 58.7812 38.6562 58.7812H28.3438C21.1243 58.7812 17.5146 58.7813 14.7572 57.3762C12.3316 56.1405 10.3596 54.1685 9.12375 51.743C7.71875 48.9854 7.71875 45.3758 7.71875 38.1562Z" stroke="#A6EDC8" stroke-width="4.125"/>
<path d="M33.5 45.8906V30.4219M33.5 30.4219L39.9453 36.8672M33.5 30.4219L27.0547 36.8672" stroke="#A6EDC8" stroke-width="4.125" stroke-linecap="round" stroke-linejoin="round"/>
</svg>
