<svg width="51" height="50" viewBox="0 0 51 50" fill="none" xmlns="http://www.w3.org/2000/svg">
<rect x="0.94873" y="0.5" width="49" height="49" rx="24.5" stroke="#9D9D9D" stroke-opacity="0.4"/>
<path d="M17.3237 18.9062V32.1094C17.3237 33.7922 18.6879 35.1562 20.3706 35.1562H30.5269C32.2096 35.1562 33.5737 33.7922 33.5737 32.1094V21.9531C33.5737 20.2704 32.2096 18.9062 30.5269 18.9062H17.3237ZM17.3237 18.9062V17.8906" stroke="#F1F1F1" stroke-width="1.625"/>
<path d="M31.5425 18.9063V19.668H32.3042V18.9063H31.5425ZM18.4115 19.668H31.5425V18.1446H18.4115V19.668ZM32.3042 18.9063V17.1858H30.7808V18.9063H32.3042ZM29.1163 14.4209L18.15 15.9875L18.3654 17.4957L29.3317 15.9291L29.1163 14.4209ZM18.15 15.9875C17.2388 16.1177 16.562 16.8981 16.562 17.8185H18.0854C18.0854 17.6562 18.2048 17.5186 18.3654 17.4957L18.15 15.9875ZM32.3042 17.1858C32.3042 15.4862 30.7988 14.1806 29.1163 14.4209L29.3317 15.9291C30.0965 15.8198 30.7808 16.4133 30.7808 17.1858H32.3042ZM18.4115 18.1446C18.2314 18.1446 18.0854 17.9986 18.0854 17.8185H16.562C16.562 18.8399 17.3901 19.668 18.4115 19.668V18.1446Z" fill="#F1F1F1"/>
<path d="M21.3862 25H29.5112" stroke="#F1F1F1" stroke-width="1.625" stroke-linecap="round"/>
<path d="M21.3862 28.5547H26.9722" stroke="#F1F1F1" stroke-width="1.625" stroke-linecap="round"/>
</svg>
