<svg width="24" height="24" viewBox="0 0 24 24" fill="none" xmlns="http://www.w3.org/2000/svg">
<path d="M12 0L12.2399 7.42269L13.2543 0.0657377L12.717 7.47284L14.4949 0.262229L13.1863 7.57259L15.7082 0.587322L13.6426 7.72085L16.8808 1.03745L14.0809 7.91599L18 1.6077L14.4964 8.15588L19.0534 2.2918L14.8845 8.43788L20.0296 3.08226L15.2411 8.75891L20.9177 3.97043L15.5621 9.11545L21.7082 4.94658L15.8441 9.5036L22.3923 6L16.084 9.91909L22.9625 7.11916L16.2792 10.3574L23.4127 8.2918L16.4274 10.8137L23.7378 9.50506L16.5272 11.283L23.9343 10.7457L16.5773 11.7601L24 12L16.5773 12.2399L23.9343 13.2543L16.5272 12.717L23.7378 14.4949L16.4274 13.1863L23.4127 15.7082L16.2792 13.6426L22.9625 16.8808L16.084 14.0809L22.3923 18L15.8441 14.4964L21.7082 19.0534L15.5621 14.8845L20.9177 20.0296L15.2411 15.2411L20.0296 20.9177L14.8845 15.5621L19.0534 21.7082L14.4964 15.8441L18 22.3923L14.0809 16.084L16.8808 22.9625L13.6426 16.2792L15.7082 23.4127L13.1863 16.4274L14.4949 23.7378L12.717 16.5272L13.2543 23.9343L12.2399 16.5773L12 24L11.7601 16.5773L10.7457 23.9343L11.283 16.5272L9.50506 23.7378L10.8137 16.4274L8.2918 23.4127L10.3574 16.2792L7.11916 22.9625L9.91909 16.084L6 22.3923L9.5036 15.8441L4.94658 21.7082L9.11545 15.5621L3.97043 20.9177L8.75891 15.2411L3.08226 20.0296L8.43788 14.8845L2.2918 19.0534L8.15588 14.4964L1.6077 18L7.91599 14.0809L1.03745 16.8808L7.72085 13.6426L0.587322 15.7082L7.57259 13.1863L0.262229 14.4949L7.47284 12.717L0.0657377 13.2543L7.42269 12.2399L0 12L7.42269 11.7601L0.0657377 10.7457L7.47284 11.283L0.262229 9.50506L7.57259 10.8137L0.587322 8.2918L7.72085 10.3574L1.03745 7.11916L7.91599 9.91909L1.6077 6L8.15588 9.5036L2.2918 4.94658L8.43788 9.11545L3.08226 3.97043L8.75891 8.75891L3.97043 3.08226L9.11545 8.43788L4.94658 2.2918L9.5036 8.15588L6 1.6077L9.91909 7.91599L7.11916 1.03745L10.3574 7.72085L8.2918 0.587322L10.8137 7.57259L9.50506 0.262229L11.283 7.47284L10.7457 0.0657377L11.7601 7.42269L12 0Z" fill="#A6EDC8"/>
</svg>
