<svg width="51" height="51" viewBox="0 0 51 51" fill="none" xmlns="http://www.w3.org/2000/svg">
<rect x="1.11047" y="0.672607" width="49" height="49" rx="24.5" stroke="#9D9D9D" stroke-opacity="0.4"/>
<path d="M24.5948 30.2507H21.548C18.6753 30.2507 17.239 30.2507 16.3466 29.3583C15.4542 28.4659 15.4542 27.0296 15.4542 24.157V23.1414C15.4542 19.3112 15.4542 17.3961 16.6441 16.2062C17.834 15.0164 19.7491 15.0164 23.5792 15.0164H29.1652C31.5362 15.0164 32.7218 15.0164 33.6193 15.496C34.3279 15.8748 34.9083 16.4552 35.287 17.1638C35.7667 18.0613 35.7667 19.2468 35.7667 21.6179" stroke="#F1F1F1" stroke-width="1.625" stroke-linecap="round"/>
<path d="M27.6417 28.2195C27.6417 26.3044 27.6417 25.3469 28.2367 24.7519C28.8316 24.157 29.7892 24.157 31.7042 24.157C33.6193 24.157 34.5768 24.157 35.1718 24.7519C35.7667 25.3469 35.7667 26.3044 35.7667 28.2195V31.2664C35.7667 33.1814 35.7667 34.139 35.1718 34.7339C34.5768 35.3289 33.6193 35.3289 31.7042 35.3289C29.7892 35.3289 28.8316 35.3289 28.2367 34.7339C27.6417 34.139 27.6417 33.1814 27.6417 31.2664V28.2195Z" stroke="#F1F1F1" stroke-width="1.625"/>
<path d="M32.7198 33.2976H30.6886" stroke="#F1F1F1" stroke-width="1.625" stroke-linecap="round"/>
<path d="M24.5948 35.3289H21.548" stroke="#F1F1F1" stroke-width="1.625" stroke-linecap="round"/>
<path d="M24.5948 35.3289V30.2507" stroke="#F1F1F1" stroke-width="1.625" stroke-linecap="round"/>
<path d="M24.5948 26.1882H15.4542" stroke="#F1F1F1" stroke-width="1.625" stroke-linecap="round"/>
</svg>
