<svg width="51" height="50" viewBox="0 0 51 50" fill="none" xmlns="http://www.w3.org/2000/svg">
<rect x="0.714355" y="0.5" width="49" height="49" rx="24.5" stroke="#9D9D9D" stroke-opacity="0.4"/>
<path d="M22.9624 16.3668C24.4056 15.6902 26.023 15.6902 27.4662 16.3668L34.2619 19.5528C35.7402 20.2458 35.7402 22.6448 34.2619 23.3378L27.4663 26.5238C26.0231 27.2004 24.4057 27.2004 22.9625 26.5238L16.1668 23.3378C14.6885 22.6448 14.6886 20.2458 16.1668 19.5528L22.9624 16.3668Z" stroke="#F1F1F1" stroke-width="1.625"/>
<path d="M15.0581 21.4453V27.0312" stroke="#F1F1F1" stroke-width="1.625" stroke-linecap="round"/>
<path d="M32.3237 24.4922V29.6977C32.3237 30.7214 31.8124 31.68 30.9168 32.176C29.4254 33.0018 27.0384 34.1406 25.2144 34.1406C23.3903 34.1406 21.0033 33.0018 19.512 32.176C18.6163 31.68 18.105 30.7214 18.105 29.6977V24.4922" stroke="#F1F1F1" stroke-width="1.625" stroke-linecap="round"/>
</svg>
