<svg width="19" height="18" viewBox="0 0 19 18" fill="none" xmlns="http://www.w3.org/2000/svg">
<path d="M3.875 4.78125V13.9219C3.875 15.0869 4.8194 16.0312 5.98438 16.0312H13.0156C14.1806 16.0312 15.125 15.0869 15.125 13.9219V6.89062C15.125 5.72565 14.1806 4.78125 13.0156 4.78125H3.875ZM3.875 4.78125V4.07812" stroke="white" stroke-width="1.125"/>
<path d="M13.7188 4.78129V5.30863H14.2461V4.78129H13.7188ZM4.6281 5.30863H13.7188V4.25394H4.6281V5.30863ZM14.2461 4.78129V3.59021H13.1914V4.78129H14.2461ZM12.0391 1.67605L4.44701 2.76062L4.59617 3.80471L12.1882 2.72013L12.0391 1.67605ZM4.44701 2.76062C3.8162 2.85074 3.34766 3.39098 3.34766 4.02819H4.40234C4.40234 3.91584 4.48495 3.8206 4.59617 3.80471L4.44701 2.76062ZM14.2461 3.59021C14.2461 2.41352 13.2039 1.50964 12.0391 1.67605L12.1882 2.72013C12.7177 2.6445 13.1914 3.05535 13.1914 3.59021H14.2461ZM4.6281 4.25394C4.50342 4.25394 4.40234 4.15287 4.40234 4.02819H3.34766C3.34766 4.73536 3.92093 5.30863 4.6281 5.30863V4.25394Z" fill="white"/>
<path d="M6.6875 9H12.3125" stroke="white" stroke-width="1.125" stroke-linecap="round"/>
<path d="M6.6875 11.4609H10.5547" stroke="white" stroke-width="1.125" stroke-linecap="round"/>
</svg>
