<svg width="26" height="24" viewBox="0 0 26 24" fill="none" xmlns="http://www.w3.org/2000/svg">
<path d="M21.2031 1.45312H4.79688C3.1396 1.45312 2.31095 1.45313 1.7961 1.93617C1.28125 2.41922 1.28125 3.19666 1.28125 4.75155V5.55994C1.28125 6.77616 1.28125 7.38427 1.58547 7.88838C1.88969 8.3925 2.44547 8.70537 3.55705 9.33111L6.97075 11.2528C7.71655 11.6726 8.08946 11.8826 8.35646 12.1144C8.91249 12.5971 9.25478 13.1643 9.40989 13.86C9.48438 14.194 9.48438 14.5849 9.48438 15.3667V18.495C9.48438 19.5609 9.48438 20.0938 9.77959 20.5093C10.0748 20.9248 10.5992 21.1297 11.6479 21.5398C13.8494 22.4004 14.9501 22.8307 15.7329 22.3411C16.5156 21.8515 16.5156 20.7327 16.5156 18.495V15.3667C16.5156 14.5849 16.5156 14.194 16.5902 13.86C16.7452 13.1643 17.0875 12.5971 17.6436 12.1144C17.9105 11.8826 18.2834 11.6726 19.0293 11.2528L22.443 9.33111C23.5545 8.70537 24.1103 8.3925 24.4145 7.88838C24.7188 7.38427 24.7188 6.77616 24.7188 5.55994V4.75155C24.7188 3.19666 24.7187 2.41922 24.2039 1.93617C23.689 1.45313 22.8604 1.45312 21.2031 1.45312Z" stroke="#F1F1F1" stroke-width="1.875"/>
</svg>
