<svg width="60" height="60" viewBox="0 0 60 60" fill="none" xmlns="http://www.w3.org/2000/svg">
<rect x="0.6" y="0.6" width="58.8" height="58.8" rx="29.4" stroke="#9D9D9D" stroke-opacity="0.4" stroke-width="1.2"/>
<path d="M17.5 30C17.5 33.3152 18.817 36.4946 21.1612 38.8388C23.5054 41.183 26.6848 42.5 30 42.5C33.3152 42.5 36.4946 41.183 38.8388 38.8388C41.183 36.4946 42.5 33.3152 42.5 30C42.5 26.6848 41.183 23.5054 38.8388 21.1612C36.4946 18.817 33.3152 17.5 30 17.5C26.6848 17.5 23.5054 18.817 21.1612 21.1612C18.817 23.5054 17.5 26.6848 17.5 30Z" stroke="#F1F1F1" stroke-width="2"/>
<path d="M22.5 20.8882C23.4753 21.7763 25.4844 24.204 25.7185 26.8092C25.9373 29.2444 27.5446 31.2232 30 31.25C30.9436 31.2603 31.8979 30.5786 31.8955 29.635C31.8948 29.3431 31.8466 29.0448 31.7712 28.7704C31.6664 28.3885 31.6571 27.9494 31.875 27.5C32.6374 25.9282 34.1367 25.506 35.3249 24.6523C35.8517 24.2737 36.3324 23.8743 36.5444 23.5526C37.1296 22.6645 37.7147 20.8882 37.4221 20" stroke="#F1F1F1" stroke-width="2"/>
<path d="M42.5 31.25C42.0882 32.4138 41.7969 35.4688 37.1477 35.5173C37.1477 35.5173 33.0307 35.5173 31.7956 37.8449C30.8075 39.7069 31.3839 41.7241 31.7956 42.5" stroke="#F1F1F1" stroke-width="2"/>
</svg>
