<svg width="21" height="20" viewBox="0 0 21 20" fill="none" xmlns="http://www.w3.org/2000/svg">
<path d="M5.17334 6.875C5.17334 4.66529 5.17334 3.56044 5.85981 2.87397C6.54628 2.1875 7.65113 2.1875 9.86084 2.1875H11.4233C13.633 2.1875 14.7379 2.1875 15.4244 2.87397C16.1108 3.56044 16.1108 4.66529 16.1108 6.875V13.125C16.1108 15.3347 16.1108 16.4395 15.4244 17.126C14.7379 17.8125 13.633 17.8125 11.4233 17.8125H9.86084C7.65113 17.8125 6.54628 17.8125 5.85981 17.126C5.17334 16.4395 5.17334 15.3347 5.17334 13.125V6.875Z" stroke="#F1F1F1" stroke-width="1.25"/>
<path d="M8.29834 10.7812H12.9858" stroke="#F1F1F1" stroke-width="1.25" stroke-linecap="round"/>
<path d="M8.29834 7.65625H12.9858" stroke="#F1F1F1" stroke-width="1.25" stroke-linecap="round"/>
<path d="M8.29834 13.9062H10.6421" stroke="#F1F1F1" stroke-width="1.25" stroke-linecap="round"/>
<path d="M2.82959 15.4688V4.53125" stroke="#F1F1F1" stroke-width="1.25" stroke-linecap="round"/>
<path d="M18.4546 15.4688V4.53125" stroke="#F1F1F1" stroke-width="1.25" stroke-linecap="round"/>
</svg>
