<svg width="51" height="51" viewBox="0 0 51 51" fill="none" xmlns="http://www.w3.org/2000/svg">
<rect x="1.0376" y="0.672607" width="49" height="49" rx="24.5" stroke="#9D9D9D" stroke-opacity="0.4"/>
<path d="M35.6938 23.6492V25.1726C35.6938 29.9603 35.6938 32.3542 34.2065 33.8415C32.7192 35.3289 30.3253 35.3289 25.5376 35.3289C20.7499 35.3289 18.356 35.3289 16.8687 33.8415C15.3813 32.3542 15.3813 29.9603 15.3813 25.1726C15.3813 20.3849 15.3813 17.9911 16.8687 16.5037C18.356 15.0164 20.7499 15.0164 25.5376 15.0164H27.061" stroke="#F1F1F1" stroke-width="1.625" stroke-linecap="round"/>
<path d="M29.6001 18.0632C29.6001 18.8713 29.9211 19.6463 30.4925 20.2177C31.0639 20.7891 31.8389 21.1101 32.647 21.1101C33.4551 21.1101 34.23 20.7891 34.8014 20.2177C35.3728 19.6463 35.6938 18.8713 35.6938 18.0632C35.6938 17.2552 35.3728 16.4802 34.8014 15.9088C34.23 15.3374 33.4551 15.0164 32.647 15.0164C31.8389 15.0164 31.0639 15.3374 30.4925 15.9088C29.9211 16.4802 29.6001 17.2552 29.6001 18.0632Z" stroke="#F1F1F1" stroke-width="1.625"/>
<path d="M20.4595 27.2039L22.7882 24.8751C23.1848 24.4785 23.8279 24.4785 24.2245 24.8751L25.8351 26.4857C26.2317 26.8823 26.8748 26.8823 27.2714 26.4857L30.6157 23.1414M30.6157 23.1414V25.6804M30.6157 23.1414H28.0767" stroke="#F1F1F1" stroke-width="1.625" stroke-linecap="round" stroke-linejoin="round"/>
</svg>
