<svg width="60" height="60" viewBox="0 0 60 60" fill="none" xmlns="http://www.w3.org/2000/svg">
<rect x="0.6" y="0.6" width="58.8" height="58.8" rx="29.4" stroke="#9D9D9D" stroke-opacity="0.4" stroke-width="1.2"/>
<path d="M25 21.25C25 23.3211 23.3211 25 21.25 25C19.1789 25 17.5 23.3211 17.5 21.25C17.5 19.1789 19.1789 17.5 21.25 17.5C23.3211 17.5 25 19.1789 25 21.25Z" stroke="#F1F1F1" stroke-width="2"/>
<path d="M42.5 21.25C42.5 23.3211 40.8211 25 38.75 25C36.6789 25 35 23.3211 35 21.25C35 19.1789 36.6789 17.5 38.75 17.5C40.8211 17.5 42.5 19.1789 42.5 21.25Z" stroke="#F1F1F1" stroke-width="2"/>
<path d="M25 38.75C25 40.8211 23.3211 42.5 21.25 42.5C19.1789 42.5 17.5 40.8211 17.5 38.75C17.5 36.6789 19.1789 35 21.25 35C23.3211 35 25 36.6789 25 38.75Z" stroke="#F1F1F1" stroke-width="2"/>
<path d="M42.5 38.75C42.5 40.8211 40.8211 42.5 38.75 42.5C36.6789 42.5 35 40.8211 35 38.75C35 36.6789 36.6789 35 38.75 35C40.8211 35 42.5 36.6789 42.5 38.75Z" stroke="#F1F1F1" stroke-width="2"/>
<path d="M25 38.75H35" stroke="#F1F1F1" stroke-width="2" stroke-linecap="round"/>
<path d="M25 21.25H35" stroke="#F1F1F1" stroke-width="2" stroke-linecap="round"/>
<path d="M38.75 35V25" stroke="#F1F1F1" stroke-width="2" stroke-linecap="round"/>
<path d="M21.25 35V25" stroke="#F1F1F1" stroke-width="2" stroke-linecap="round"/>
</svg>
