<svg width="33" height="32" viewBox="0 0 33 32" fill="none" xmlns="http://www.w3.org/2000/svg">
<path d="M4.47009 16.0002C4.47009 19.3155 5.78705 22.4949 8.13126 24.8391C10.4755 27.1833 13.6549 28.5002 16.9701 28.5002C20.2853 28.5002 23.4647 27.1833 25.8089 24.8391C28.1531 22.4949 29.4701 19.3155 29.4701 16.0002C29.4701 12.685 28.1531 9.50561 25.8089 7.16141C23.4647 4.8172 20.2853 3.50024 16.9701 3.50024C13.6549 3.50024 10.4755 4.8172 8.13126 7.16141C5.78705 9.50561 4.47009 12.685 4.47009 16.0002Z" stroke="#F1F1F1" stroke-width="2"/>
<path d="M13.22 19.7502L20.72 12.2502M20.72 12.2502H15.095M20.72 12.2502V17.8752" stroke="#F1F1F1" stroke-width="2" stroke-linecap="round" stroke-linejoin="round"/>
</svg>
