<svg width="21" height="21" viewBox="0 0 21 21" fill="none" xmlns="http://www.w3.org/2000/svg">
<path d="M2.8877 10.5C2.8877 6.81715 2.8877 4.97573 4.03181 3.83162C5.17592 2.6875 7.01734 2.6875 10.7002 2.6875C14.383 2.6875 16.2245 2.6875 17.3686 3.83162C18.5127 4.97573 18.5127 6.81715 18.5127 10.5C18.5127 14.1828 18.5127 16.0243 17.3686 17.1684C16.2245 18.3125 14.383 18.3125 10.7002 18.3125C7.01734 18.3125 5.17592 18.3125 4.03181 17.1684C2.8877 16.0243 2.8877 14.1828 2.8877 10.5Z" stroke="#00A651" stroke-width="1.25"/>
<path d="M6.79395 15.1875V8.15625" stroke="#00A651" stroke-width="1.25" stroke-linecap="round"/>
<path d="M10.7002 15.1875V5.8125" stroke="#00A651" stroke-width="1.25" stroke-linecap="round"/>
<path d="M14.6064 15.1875V11.2812" stroke="#00A651" stroke-width="1.25" stroke-linecap="round"/>
</svg>
