<svg width="46" height="47" viewBox="0 0 46 47" fill="none" xmlns="http://www.w3.org/2000/svg">
<path d="M5.03125 23.6666C5.03125 16.8902 5.03125 13.502 7.13641 11.3968C9.2416 9.29163 12.6298 9.29163 19.4062 9.29163H26.5938C33.3701 9.29163 36.7585 9.29163 38.8635 11.3968C40.9687 13.502 40.9688 16.8902 40.9688 23.6666C40.9688 30.443 40.9687 33.8314 38.8635 35.9364C36.7585 38.0416 33.3701 38.0416 26.5938 38.0416H19.4062C12.6298 38.0416 9.2416 38.0416 7.13641 35.9364C5.03125 33.8314 5.03125 30.443 5.03125 23.6666Z" stroke="#F1F1F1" stroke-width="2.875"/>
<path d="M12.2188 16.4791L16.098 19.7118C19.3982 22.462 21.0484 23.8371 23 23.8371C24.9516 23.8371 26.6018 22.462 29.902 19.7118L33.7812 16.4791" stroke="#F1F1F1" stroke-width="2.875" stroke-linecap="round"/>
</svg>
