<svg width="46" height="47" viewBox="0 0 46 47" fill="none" xmlns="http://www.w3.org/2000/svg">
<path d="M10.4219 17.0707C10.4219 10.6057 16.0533 5.36475 23 5.36475C29.9467 5.36475 35.5781 10.6057 35.5781 17.0707C35.5781 23.4852 31.5635 30.97 25.3002 33.6468C23.84 34.2707 22.16 34.2707 20.6998 33.6468C14.4364 30.97 10.4219 23.4852 10.4219 17.0707Z" stroke="#F1F1F1" stroke-width="2.875"/>
<path d="M26.5938 17.9429C26.5938 19.9277 24.9848 21.5366 23 21.5366C21.0152 21.5366 19.4062 19.9277 19.4062 17.9429C19.4062 15.9581 21.0152 14.3491 23 14.3491C24.9848 14.3491 26.5938 15.9581 26.5938 17.9429Z" stroke="#F1F1F1" stroke-width="2.875"/>
<path d="M39.1009 29.6226C40.2965 30.7052 40.9688 31.9254 40.9688 33.2163C40.9688 37.6821 32.9238 41.3022 23 41.3022C13.0761 41.3022 5.03125 37.6821 5.03125 33.2163C5.03125 31.9254 5.7035 30.7052 6.89905 29.6226" stroke="#F1F1F1" stroke-width="2.875" stroke-linecap="round"/>
</svg>
