<svg width="46" height="46" viewBox="0 0 46 46" fill="none" xmlns="http://www.w3.org/2000/svg">
<path d="M19.4738 10.99L20.64 13.0796C21.6924 14.9654 21.27 17.4392 19.6124 19.0968C19.6122 19.097 17.602 21.1075 21.2472 24.7529C24.8912 28.3969 26.9017 26.3891 26.9032 26.3876C28.5608 24.73 31.0345 24.3076 32.9204 25.36L35.01 26.5262C37.8576 28.1153 38.1938 32.1087 35.691 34.6118C34.187 36.1157 32.3445 37.2861 30.3077 37.3631C26.8791 37.4932 21.0563 36.6255 15.2154 30.7846C9.37454 24.9437 8.50679 19.1209 8.63677 15.6923C8.71398 13.6555 9.88425 11.8131 11.3883 10.3091C13.8912 7.80613 17.8846 8.14243 19.4738 10.99Z" stroke="#F1F1F1" stroke-width="2.875" stroke-linecap="round"/>
</svg>
