<svg width="176" height="127" viewBox="0 0 176 127" fill="none" xmlns="http://www.w3.org/2000/svg">
<path d="M35.4219 72.8026C35.4219 42.8701 59.6869 18.6051 89.6193 18.6051C119.552 18.6051 143.817 42.8701 143.817 72.8026C143.817 102.735 119.552 127 89.6193 127C59.6869 127 35.4219 102.735 35.4219 72.8026Z" fill="white" fill-opacity="0.2"/>
<path d="M78.0059 74.4618L84.6427 81.0987L101.235 64.5063" stroke="white" stroke-width="4.8535" stroke-linecap="round" stroke-linejoin="round"/>
<path d="M73.0256 44.0576C77.9067 41.2341 83.5738 39.6182 89.6179 39.6182C107.945 39.6182 122.802 54.4753 122.802 72.8025C122.802 91.1296 107.945 105.987 89.6179 105.987C71.2908 105.987 56.4336 91.1296 56.4336 72.8025C56.4336 66.7583 58.0495 61.0913 60.873 56.2102" stroke="white" stroke-width="4.8535" stroke-linecap="round"/>
<path d="M136.145 1.38705C136.255 0.993535 136.813 0.993534 136.924 1.38705L138.069 5.46571C138.107 5.60153 138.213 5.70767 138.349 5.7458L142.427 6.89085C142.821 7.00133 142.821 7.55918 142.427 7.66966L138.349 8.81471C138.213 8.85284 138.107 8.95898 138.069 9.0948L136.924 13.1735C136.813 13.567 136.255 13.567 136.145 13.1735L135 9.0948C134.962 8.95898 134.855 8.85284 134.72 8.81471L130.641 7.66966C130.247 7.55918 130.247 7.00133 130.641 6.89085L134.72 5.7458C134.855 5.70767 134.962 5.60153 135 5.46571L136.145 1.38705Z" fill="white"/>
<path d="M8.33649 46.6864C8.44696 46.2929 9.00482 46.2929 9.1153 46.6864L10.4377 51.3966C10.4758 51.5324 10.5819 51.6386 10.7177 51.6767L15.428 52.9991C15.8215 53.1096 15.8215 53.6674 15.428 53.7779L10.7177 55.1003C10.5819 55.1384 10.4758 55.2445 10.4377 55.3803L9.1153 60.0906C9.00482 60.4841 8.44696 60.4841 8.33649 60.0906L7.01411 55.3803C6.97599 55.2445 6.86985 55.1384 6.73403 55.1003L2.02377 53.7779C1.63025 53.6674 1.63025 53.1096 2.02377 52.9991L6.73403 51.6767C6.86985 51.6386 6.97599 51.5324 7.01411 51.3966L8.33649 46.6864Z" fill="white"/>
<path d="M165.265 87.9412C165.375 87.5477 165.933 87.5477 166.044 87.9412L167.721 93.9147C167.759 94.0505 167.865 94.1567 168.001 94.1948L173.974 95.8718C174.368 95.9823 174.368 96.5401 173.974 96.6506L168.001 98.3276C167.865 98.3657 167.759 98.4719 167.721 98.6077L166.044 104.581C165.933 104.975 165.375 104.975 165.265 104.581L163.588 98.6077C163.55 98.4719 163.444 98.3657 163.308 98.3276L157.334 96.6506C156.941 96.5401 156.941 95.9823 157.334 95.8718L163.308 94.1948C163.444 94.1567 163.55 94.0505 163.588 93.9147L165.265 87.9412Z" fill="white"/>
</svg>
